<?xml version="1.0" encoding="utf-8"?>
<!-- Generator: Adobe Illustrator 26.5.3, SVG Export Plug-In . SVG Version: 6.00 Build 0)  -->
<svg version="1.1" id="Capa_1" xmlns="http://www.w3.org/2000/svg" xmlns:xlink="http://www.w3.org/1999/xlink" x="0px" y="0px"
	 viewBox="0 0 331.83 149.97" style="enable-background:new 0 0 331.83 149.97;" xml:space="preserve">
<style type="text/css">
	.st0{fill:#7A7A7A;}
</style>
<g>
	<path class="st0" d="M32.14,44.41v8.33c0,10.03-4.51,15.77-13.21,15.77S5.71,62.78,5.71,52.75V20.14
		c0-10.03,4.51-15.77,13.21-15.77s13.21,5.73,13.21,15.77v6.09h-8.38v-6.72c0-4.48-1.77-6.18-4.59-6.18s-4.59,1.7-4.59,6.18v33.86
		c0,4.48,1.77,6.09,4.59,6.09s4.59-1.61,4.59-6.09v-8.96H32.14z"/>
	<path class="st0" d="M35.81,20.14c0-10.03,4.75-15.77,13.46-15.77s13.45,5.73,13.45,15.77v32.61c0,10.03-4.75,15.77-13.45,15.77
		s-13.46-5.73-13.46-15.77V20.14z M44.67,53.37c0,4.48,1.77,6.18,4.59,6.18c2.82,0,4.59-1.7,4.59-6.18V19.51
		c0-4.48-1.77-6.18-4.59-6.18c-2.82,0-4.59,1.7-4.59,6.18V53.37z"/>
	<path class="st0" d="M79.35,4.37c8.62,0,13.05,5.73,13.05,15.77v1.97h-8.38v-2.6c0-4.48-1.61-6.18-4.43-6.18
		c-2.82,0-4.43,1.7-4.43,6.18c0,4.57,1.77,7.97,7.57,13.62c7.41,7.26,9.75,12.45,9.75,19.62c0,10.03-4.51,15.77-13.21,15.77
		s-13.21-5.73-13.21-15.77v-3.85h8.38v4.48c0,4.48,1.77,6.09,4.59,6.09s4.59-1.61,4.59-6.09c0-4.57-1.77-7.97-7.57-13.62
		C68.64,32.5,66.3,27.3,66.3,20.14C66.3,10.1,70.73,4.37,79.35,4.37z"/>
	<path class="st0" d="M115.25,49.61h0.16l5.96-44.53h12.33V67.8h-8.38V22.82h-0.16L119.2,67.8h-8.38l-6.45-44.35h-0.16V67.8h-7.73
		V5.09h12.33L115.25,49.61z"/>
	<path class="st0" d="M137.4,20.14c0-10.03,4.75-15.77,13.46-15.77c8.7,0,13.46,5.73,13.46,15.77v32.61
		c0,10.03-4.75,15.77-13.46,15.77c-8.7,0-13.46-5.73-13.46-15.77V20.14z M146.26,53.37c0,4.48,1.77,6.18,4.59,6.18
		s4.59-1.7,4.59-6.18V19.51c0-4.48-1.77-6.18-4.59-6.18s-4.59,1.7-4.59,6.18V53.37z"/>
	<path class="st0" d="M194.28,20.58v8.15c0,10.03-4.35,15.5-13.22,15.5h-4.19V67.8h-8.86V5.09h13.05
		C189.93,5.09,194.28,10.55,194.28,20.58z M176.88,14.04v21.23h4.19c2.82,0,4.35-1.43,4.35-5.91v-9.41c0-4.48-1.53-5.91-4.35-5.91
		H176.88z"/>
	<path class="st0" d="M196.66,20.14c0-10.03,4.75-15.77,13.46-15.77c8.7,0,13.46,5.73,13.46,15.77v32.61
		c0,10.03-4.75,15.77-13.46,15.77c-8.7,0-13.46-5.73-13.46-15.77V20.14z M205.52,53.37c0,4.48,1.77,6.18,4.59,6.18
		c2.82,0,4.59-1.7,4.59-6.18V19.51c0-4.48-1.77-6.18-4.59-6.18c-2.82,0-4.59,1.7-4.59,6.18V53.37z"/>
	<path class="st0" d="M227.28,5.09h8.86v53.75h14.58v8.96h-23.45V5.09z"/>
	<path class="st0" d="M254.59,5.09h8.86V67.8h-8.86V5.09z"/>
	<path class="st0" d="M267.32,5.09h27.39v8.96h-9.27V67.8h-8.86V14.04h-9.27V5.09z"/>
	<path class="st0" d="M323.23,67.8h-8.94l-1.53-11.38h-10.88l-1.53,11.38h-8.14l9.02-62.71h12.97L323.23,67.8z M303.01,47.91h8.54
		l-4.19-31.71h-0.16L303.01,47.91z"/>
	<path class="st0" d="M19.52,137.27h36.38v5.77H13.13V79.91h41.48v5.77H19.52V137.27z M18.83,108.14h31.98v5.68H18.83V108.14z"/>
	<path class="st0" d="M71.32,142.9V79.91h24.57c6.44,0,12.08,1.34,16.94,4c4.86,2.67,8.64,6.37,11.34,11.11
		c2.7,4.74,4.05,10.2,4.05,16.38c0,6.18-1.35,11.64-4.05,16.38c-2.7,4.74-6.48,8.44-11.34,11.11c-4.86,2.67-10.51,4-16.94,4H71.32z
		 M77.7,137.14h17.85c5.35,0,9.99-1.09,13.92-3.28c3.94-2.19,7-5.22,9.18-9.09c2.18-3.87,3.28-8.32,3.28-13.36
		c0-5.1-1.09-9.57-3.28-13.41c-2.19-3.84-5.25-6.85-9.18-9.04c-3.94-2.19-8.58-3.28-13.92-3.28H77.7V137.14z"/>
	<path class="st0" d="M166.9,145c-8.08,0-14.44-2.37-19.08-7.1c-4.64-4.73-6.96-11.74-6.96-21.02V79.91h6.69v36.7
		c0,7.62,1.69,13.25,5.06,16.87c3.38,3.63,8.14,5.44,14.29,5.44c6.21,0,11-1.81,14.38-5.44c3.38-3.63,5.06-9.25,5.06-16.87v-36.7
		h6.51v36.97c0,9.28-2.31,16.29-6.92,21.02C181.33,142.63,174.98,145,166.9,145z"/>
	<path class="st0" d="M237.36,143.47c-4.5,0-8.67-0.79-12.49-2.37c-3.82-1.58-7.13-3.79-9.92-6.65c-2.79-2.86-4.98-6.22-6.54-10.09
		c-1.57-3.87-2.35-8.09-2.35-12.68c0-4.58,0.78-8.81,2.35-12.68c1.57-3.87,3.76-7.23,6.59-10.09c2.82-2.86,6.14-5.07,9.96-6.65
		c3.82-1.58,7.98-2.37,12.49-2.37c4.33,0,8.41,0.76,12.23,2.28c3.82,1.52,7.04,3.79,9.67,6.83l-4.02,4.2
		c-2.45-2.62-5.16-4.51-8.13-5.67c-2.97-1.16-6.16-1.74-9.58-1.74c-3.59,0-6.93,0.64-10.01,1.92c-3.08,1.28-5.76,3.09-8.04,5.45
		c-2.28,2.35-4.06,5.09-5.35,8.21c-1.28,3.12-1.92,6.56-1.92,10.31s0.64,7.19,1.92,10.31c1.28,3.12,3.06,5.86,5.35,8.21
		c2.28,2.35,4.96,4.17,8.04,5.45c3.08,1.28,6.42,1.92,10.01,1.92c3.42,0,6.61-0.59,9.58-1.79c2.96-1.19,5.67-3.09,8.13-5.71
		l4.02,4.2c-2.62,3.04-5.85,5.33-9.67,6.87C245.85,142.69,241.75,143.47,237.36,143.47z"/>
	<path class="st0" d="M265.44,142.9l27.59-62.99h6.29l27.59,62.99h-6.72l-25.35-59.12h2.59l-25.35,59.12H265.44z M276.31,126.07
		l1.9-5.4h35.09l1.9,5.4H276.31z"/>
</g>
<g>
</g>
<g>
</g>
<g>
</g>
<g>
</g>
<g>
</g>
<g>
</g>
</svg>
