<?xml version="1.0" encoding="utf-8"?>
<!-- Generator: Adobe Illustrator 26.5.3, SVG Export Plug-In . SVG Version: 6.00 Build 0)  -->
<svg version="1.1" id="Capa_1" xmlns="http://www.w3.org/2000/svg" xmlns:xlink="http://www.w3.org/1999/xlink" x="0px" y="0px"
	 viewBox="0 0 64.6 35.8" style="enable-background:new 0 0 64.6 35.8;" xml:space="preserve">
<style type="text/css">
	.st0{fill-rule:evenodd;clip-rule:evenodd;fill:#FFD362;}
</style>
<path class="st0" d="M55.6,1.8c-2.1-0.3-4.1,0.6-6.2,2.5c-3.4,2.9-9.4,4.5-14.7,0.1c-2.3-1.9-4.3-2.2-5.9-1.8
	c-1.7,0.3-3.1,1.2-4.3,1.9c-1.8,1.2-3.8,2.4-6,2.8c-2.3,0.3-4.8-0.4-7.7-2.7c-2.4-2-4.4-2.4-6-2c-1.6,0.2-2.9,1.2-3.6,2
	C0.9,5,0.3,5-0.1,4.7c-0.4-0.3-0.4-0.9-0.1-1.3C0.7,2.3,2.4,1,4.5,0.7C6.6,0.4,9.2,1,11.9,3.2c2.6,2.1,4.6,2.6,6.3,2.3
	C20,5.3,21.6,4.3,23.5,3L24,3.8L23.5,3c1.1-0.8,2.9-1.9,5-2.2c2.2-0.4,4.7,0.1,7.4,2.2c4.5,3.7,9.5,2.4,12.4-0.1
	c2.3-2,4.8-3.1,7.6-2.9c2.7,0.3,5.5,2,8.6,5.5c0.3,0.3,0.3,0.9-0.1,1.2c-0.4,0.3-0.9,0.3-1.3-0.1C60.1,3.4,57.7,2,55.6,1.8z"/>
<path class="st0" d="M55.7,11.2c-2.1-0.3-4.1,0.6-6.2,2.5c-3.4,2.9-9.4,4.5-14.7,0.1c-2.3-1.9-4.3-2.2-5.9-1.8
	c-1.7,0.3-3.1,1.2-4.3,1.9c-1.8,1.2-3.8,2.4-6,2.8c-2.3,0.3-4.8-0.4-7.7-2.7c-2.4-2-4.4-2.4-6-2c-1.6,0.2-2.9,1.2-3.6,2
	C1,14.4,0.4,14.4,0,14.1c-0.4-0.3-0.4-0.9-0.1-1.3c0.9-1.1,2.6-2.3,4.7-2.6c2.2-0.3,4.7,0.3,7.4,2.4c2.6,2.1,4.6,2.6,6.3,2.3
	c1.8-0.2,3.4-1.2,5.3-2.5l0.5,0.8l-0.5-0.8c1.1-0.8,2.9-1.9,5-2.2c2.2-0.4,4.7,0.1,7.4,2.2c4.5,3.7,9.5,2.4,12.4-0.1
	c2.3-2,4.8-3.1,7.6-2.9c2.8,0.3,5.6,2,8.7,5.5c0.3,0.4,0.3,0.9-0.1,1.3c-0.4,0.3-0.9,0.3-1.3-0.1C60.2,12.9,57.8,11.5,55.7,11.2z"/>
<path class="st0" d="M55.8,20.7c-2.1-0.3-4.1,0.6-6.2,2.5c-3.4,2.9-9.4,4.5-14.7,0.1c-2.3-1.9-4.3-2.2-5.9-1.8
	c-1.7,0.3-3.1,1.2-4.3,1.9c-1.8,1.2-3.8,2.4-6,2.8c-2.3,0.3-4.8-0.4-7.7-2.7c-2.4-2-4.4-2.4-6-2c-1.6,0.2-2.9,1.2-3.6,2
	c-0.3,0.4-0.9,0.4-1.3,0.1c-0.4-0.3-0.4-0.9-0.1-1.3c0.9-1.1,2.6-2.3,4.7-2.6c2.2-0.3,4.7,0.3,7.4,2.4c2.6,2.1,4.6,2.6,6.3,2.3
	c1.8-0.1,3.4-1.1,5.3-2.4l0.5,0.8l-0.5-0.8c1.1-0.8,2.9-1.9,5-2.2c2.2-0.4,4.7,0.1,7.4,2.2c4.5,3.7,9.5,2.4,12.4-0.1
	c2.3-2,4.8-3.1,7.6-2.9c2.8,0.3,5.6,2,8.7,5.5c0.3,0.4,0.3,0.9-0.1,1.3c-0.4,0.3-0.9,0.3-1.3-0.1C60.3,22.4,57.9,21,55.8,20.7z"/>
<path class="st0" d="M55.9,30.2c-2.1-0.3-4.1,0.6-6.2,2.5c-3.4,2.9-9.4,4.5-14.7,0.1c-2.3-1.9-4.3-2.2-5.9-1.8
	c-1.7,0.3-3.1,1.2-4.3,1.9c-1.8,1.2-3.8,2.4-6,2.8C16.5,36,14,35.3,11.1,33c-2.4-2-4.4-2.4-6-2c-1.6,0.2-2.9,1.2-3.6,2
	c-0.3,0.4-0.9,0.4-1.3,0.1c-0.4-0.3-0.4-0.9-0.1-1.3c0.9-1.1,2.6-2.3,4.7-2.6c2.2-0.3,4.7,0.3,7.4,2.4c2.6,2.1,4.6,2.6,6.3,2.3
	c1.8-0.2,3.4-1.2,5.3-2.5l0.5,0.8l-0.5-0.8c1.1-0.8,2.9-1.9,5-2.2c2.2-0.4,4.7,0.1,7.4,2.2c4.5,3.7,9.5,2.4,12.4-0.1
	c2.3-2,4.8-3.1,7.6-2.9c2.8,0.3,5.6,2,8.7,5.5c0.3,0.4,0.3,0.9-0.1,1.3c-0.4,0.3-0.9,0.3-1.3-0.1C60.4,31.9,58,30.4,55.9,30.2z"/>
</svg>
